<svg xmlns="http://www.w3.org/2000/svg" viewBox="0 0 32 32">
  <rect width="32" height="32" rx="7" fill="#1f5fa8"/>
  <path transform="translate(9.402 24.960) scale(0.01280 -0.01280)"
        fill="#ffffff" d="M874.5887451171875 242.3975830078125Q874.5887451171875 118.5987548828125 761.190185546875 43.29949951171875Q647.7916259765625 -31.999755859375 456.794677734375 -31.999755859375Q275.19775390625 -31.999755859375 175.4996337890625 38.8994140625Q75.801513671875 109.798583984375 75.801513671875 228.19677734375Q75.801513671875 302.195068359375 116.4005126953125 347.9940185546875Q156.99951171875 393.79296875 226.597900390625 393.79296875Q284.996337890625 393.79296875 322.19525146484375 352.89404296875Q359.3941650390625 311.9951171875 359.3941650390625 238.59716796875V167.3983154296875Q359.3941650390625 116.1983642578125 385.6942138671875 87.29833984375Q411.9942626953125 58.3983154296875 471.9947509765625 58.3983154296875Q533.3953857421875 58.3983154296875 573.5960693359375 90.3985595703125Q613.7967529296875 122.3988037109375 613.7967529296875 183.3994140625Q613.7967529296875 232.1993408203125 592.296875 274.09912109375Q570.7969970703125 315.9989013671875 542.2971801757812 362.5985107421875Q513.79736328125 409.1981201171875 492.2974853515625 470.29754638671875Q470.797607421875 531.39697265625 470.797607421875 617.59619140625V1230.003173828125Q470.797607421875 1253.2030029296875 458.69757080078125 1268.202880859375Q446.5975341796875 1283.2027587890625 420.59765625 1288.002685546875L350.9970703125 1300.20263671875Q325.9974365234375 1305.2025146484375 314.6976318359375 1317.7022094726562Q303.3978271484375 1330.201904296875 303.3978271484375 1352.80126953125Q303.3978271484375 1375.20068359375 318.3974609375 1387.600341796875Q333.3970947265625 1400 364.996337890625 1400H868.990234375Q900.989501953125 1400 915.7891235351562 1387.600341796875Q930.5887451171875 1375.20068359375 930.5887451171875 1352.80126953125Q930.5887451171875 1314.4022216796875 887.789306640625 1300.8026123046875L831.38818359375 1288.002685546875Q807.188232421875 1280.8028564453125 794.188232421875 1266.7029418945312Q781.188232421875 1252.60302734375 781.188232421875 1230.003173828125V638.3956298828125Q781.188232421875 565.99609375 795.3883056640625 514.5963745117188Q809.58837890625 463.1966552734375 827.8884887695312 421.8968505859375Q846.1885986328125 380.5970458984375 860.388671875 338.397216796875Q874.5887451171875 296.1973876953125 874.5887451171875 242.3975830078125Z"/>
</svg>
